PathFileType	4	(X/Y/Z)	C:\Users\WrightLab\Desktop\Jo\P5V134.trc
DataRate	CameraRate	NumFrames	NumMarkers	Units	OrigDataRate	OrigDataStartFrame	OrigNumFrames
100.00	100.00	       22	19	mm	100.00	397	       529
Frame#	Time	Headset_Front			Headset_Back			Headset_Left			Headset_Right			Left_Shoulder			Right_Shoulder			Sternum			C7			Left Elbow			Right Elbow			Left Wrist			Right Wrist			Left ASIS			Right ASIS			S2			Left Knee			Right Knee			Left Ankle			Right Ankle			
		X1	Y1	Z1	X2	Y2	Z2	X3	Y3	Z3	X4	Y4	Z4	X5	Y5	Z5	X6	Y6	Z6	X7	Y7	Z7	X8	Y8	Z8	X9	Y9	Z9	X10	Y10	Z10	X11	Y11	Z11	X12	Y12	Z12	X13	Y13	Z13	X14	Y14	Z14	X15	Y15	Z15	X16	Y16	Z16	X17	Y17	Z17	X18	Y18	Z18	X19	Y19	Z19	

397	3.960																															-461.28870	1153.11157	1451.70398				-576.77533	949.23865	1528.10168				-783.85175	994.79382	1320.06299	-615.44653	527.57990	1593.60901				-693.49567	124.82301	1694.18091	-931.12964	183.23225	1201.42151	
398	3.970																															-460.16113	1149.82043	1455.64392				-575.17950	948.35834	1540.16162				-783.48682	992.34332	1332.84192	-614.95129	524.77917	1603.06458				-694.97949	123.41684	1700.51978	-931.26605	186.01581	1205.78235	
399	3.980																															-456.08463	1147.37305	1464.03015				-572.78229	946.97522	1551.39465				-783.13159	989.99701	1345.26270	-613.59576	522.41565	1613.55396				-695.77893	121.11412	1709.12842	-932.38586	190.90714	1212.29993	
400	3.990																															-456.33746	1144.08789	1468.22375				-569.84882	945.65710	1563.07776				-782.27814	986.37988	1357.67004	-612.40967	520.01208	1623.05701				-699.73242	121.80475	1708.91467	-933.23706	195.21365	1218.85339	
401	4.000																															-450.37445	1141.72290	1475.96179				-566.99207	944.27551	1575.51709				-781.48749	983.17218	1370.79651	-610.75726	517.05432	1633.26672				-702.86401	123.01989	1710.24756	-934.21844	199.42839	1227.44275	
402	4.010																															-450.32587	1137.20789	1483.41309				-564.03796	942.92926	1586.32227				-780.48584	979.66144	1383.84692	-608.56879	514.36218	1646.49146				-701.34930	121.96471	1715.46216	-936.24109	206.10103	1234.86768	
403	4.020																															-448.32532	1135.00232	1488.35791				-561.71112	941.36713	1598.11060				-779.84082	977.02936	1396.95081	-606.24701	511.93539	1660.41675							-937.88281	210.61877	1246.50354	
404	4.030																															-444.25156	1133.13293	1494.66272				-558.66827	942.63647	1609.23816				-779.62915	975.23499	1409.09180	-603.18182	510.91196	1674.86987							-939.70789	216.13152	1262.18213	
405	4.040																															-440.77728	1131.17798	1501.95154				-554.59290	941.88513	1620.68372				-778.76569	974.06866	1421.80640	-598.71533	513.47046	1687.25146							-942.80908	225.08469	1275.78223	
406	4.050																															-437.60132	1129.82422	1507.96069				-551.63312	942.83630	1629.45520				-778.12152	973.17621	1433.45105	-592.87396	514.61182	1699.87146							-944.33093	231.21387	1293.71436	
407	4.060																															-434.60638	1129.45557	1513.68005				-548.39771	943.40289	1638.97632				-777.29150	972.06598	1445.76990	-586.78198	517.44739	1711.21362							-946.18939	241.39198	1308.21753	
408	4.070																															-431.56729	1129.49390	1520.31506				-544.67902	945.22729	1647.32727				-777.04077	972.00519	1457.65479	-581.36981	520.28229	1720.93396							-947.11304	249.38202	1330.23743	
409	4.080																															-428.92987	1129.53833	1525.75305				-540.83429	947.51428	1655.55005				-776.35663	971.89301	1469.12329	-575.61481	521.31311	1729.99915							-946.89594	256.11557	1348.13745	
410	4.090																															-427.11508	1129.91467	1531.52710				-537.56592	948.72052	1662.45349				-775.46704	972.57465	1481.03796	-570.41937	522.75940	1738.12842							-946.64978	264.50198	1367.38489	
411	4.100																															-424.43634	1131.12085	1536.70020				-534.28076	949.86444	1668.84863				-774.29010	972.47467	1493.26172	-564.37524	524.43689	1746.54578							-946.30066	270.45703	1389.55640	
412	4.110																															-422.63364	1132.24695	1542.16333				-530.73907	951.14136	1674.45752				-773.97308	973.85022	1504.29028	-558.92194	524.78333	1753.53040							-945.54224	275.84824	1411.93420	
413	4.120																															-419.57675	1134.38416	1549.57971				-527.46088	953.54535	1682.72803				-772.54645	974.77496	1514.78748	-554.13562	526.13861	1758.65173							-944.13007	280.50198	1434.75525	
414	4.130																															-418.50067	1135.97192	1553.25305				-523.76733	954.06311	1686.60266				-771.19141	976.42212	1524.55908	-547.96814	527.01172	1765.31775							-943.15424	284.95114	1457.34509	
415	4.140																															-417.59464	1137.62341	1557.55542				-520.89111	956.81604	1691.83142				-770.37634	978.19153	1533.01978	-542.74200	527.62531	1770.29468							-941.05042	288.97797	1479.52393	
416	4.150																															-415.76282	1140.53198	1561.89636				-516.80670	958.30670	1698.76660				-767.97839	979.61353	1542.65491	-537.51007	529.46710	1771.80286							-938.45129	292.12064	1501.58679	
417	4.160																															-414.14166	1142.79700	1566.23010				-513.78076	960.65704	1705.01746				-767.62250	981.84937	1553.18848	-531.92670	530.98059	1775.25781							-935.80731	294.41275	1524.29370	
418	4.170																															-412.84714	1145.37268	1569.95886				-510.52490	962.43982	1709.07434				-767.17072	984.01904	1560.35193	-525.72827	532.41962	1778.04236							-932.56262	296.29593	1547.12097	
